# xmcd CD database file
#
# Track frame offsets:
#	150
#	22745
#	41414
#	68267
#	87840
#	109670
#	129248
#	148518
#
# Disc length: 2115 seconds
#
# Revision: 0
# Processed by: cddbd v1.5.2PL0 Copyright (c) Steve Scherf et al.
# Submitted via: jetAudio 7
#
DISCID=54084108
DTITLE=음악가 없음 - 앨범 없음
DYEAR=1900
DGENRE=장르 없음
TTITLE0=夢的翅膀
TTITLE1=聽吧
TTITLE2=花間的露珠
TTITLE3=如願
TTITLE4=只要曾經擁有
TTITLE5=YES，YOU LOVE ME
TTITLE6=月亮代表我的心
TTITLE7=我想不起來啦
EXTD=
EXTT0=
EXTT1=
EXTT2=
EXTT3=
EXTT4=
EXTT5=
EXTT6=
EXTT7=
PLAYORDER=
